<?xml version="1.0" encoding="utf-8"?>
<!-- Generator: Adobe Illustrator 25.2.1, SVG Export Plug-In . SVG Version: 6.00 Build 0)  -->
<svg version="1.1" xmlns="http://www.w3.org/2000/svg" xmlns:xlink="http://www.w3.org/1999/xlink" x="0px" y="0px"
	 viewBox="0 0 3710 3710" style="enable-background:new 0 0 3710 3710;" xml:space="preserve">
<style type="text/css">
	.st0{fill:url(#SVGID_1_);}
	.st1{fill:#BDD0FB;}
	.st2{opacity:0.43;fill:#FFFFFF;}
	.st3{fill:#91B3FA;}
	.st4{fill:url(#SVGID_2_);}
	.st5{fill:#FFFFFF;}
	.st6{fill:url(#SVGID_3_);}
	.st7{fill:url(#SVGID_4_);}
	.st8{fill:#7D97F4;}
	.st9{fill:url(#SVGID_5_);}
	.st10{fill:url(#SVGID_6_);}
	.st11{fill:url(#SVGID_7_);}
	.st12{fill:url(#SVGID_8_);}
	.st13{fill:url(#SVGID_9_);}
	.st14{fill:url(#SVGID_10_);}
	.st15{fill:url(#SVGID_11_);}
	.st16{opacity:0.63;fill:#FFFFFF;}
	.st17{fill:url(#SVGID_12_);}
	.st18{fill:url(#SVGID_13_);}
	.st19{fill:url(#SVGID_14_);}
	.st20{fill:url(#SVGID_15_);}
	.st21{fill:url(#SVGID_16_);}
	.st22{fill:url(#SVGID_17_);}
	.st23{fill:url(#SVGID_18_);}
	.st24{fill:url(#SVGID_19_);}
	.st25{fill:url(#SVGID_20_);}
	.st26{fill:url(#SVGID_21_);}
	.st27{fill:url(#SVGID_22_);}
	.st28{fill:url(#SVGID_23_);}
	.st29{fill:url(#SVGID_24_);}
	.st30{fill:url(#SVGID_25_);}
	.st31{fill:url(#SVGID_26_);}
	.st32{fill:url(#SVGID_27_);}
	.st33{fill:url(#SVGID_28_);}
	.st34{fill:url(#SVGID_29_);}
	.st35{fill:url(#SVGID_30_);}
	.st36{fill:url(#SVGID_31_);}
	.st37{fill:url(#SVGID_32_);}
	.st38{fill:url(#SVGID_33_);}
	.st39{fill:url(#SVGID_34_);}
	.st40{fill:url(#SVGID_35_);}
	.st41{fill:url(#SVGID_36_);}
	.st42{fill:url(#SVGID_37_);}
	.st43{fill:url(#SVGID_38_);}
	.st44{fill:url(#SVGID_39_);}
	.st45{fill:url(#SVGID_40_);}
	.st46{opacity:0.33;fill:url(#SVGID_41_);}
</style>
<g id="Background">
</g>
<g id="Illustration">
	<g>
		<linearGradient id="SVGID_1_" gradientUnits="userSpaceOnUse" x1="3938.4897" y1="4120.3682" x2="1452.6797" y2="1474.184">
			<stop  offset="0" style="stop-color:#DAE3FE"/>
			<stop  offset="1" style="stop-color:#E9EFFD"/>
		</linearGradient>
		<path class="st0" d="M3192.13,3058.73c-91.77,94.59-173.87,150.19-236.74,192.17c-613.11,409.38-1313.97,291.39-1530.66,251.06
			c-349.6-65.07-644.71-110.97-898.26-340.04C-49.68,2641.39-21.66,1555.53,418.59,882.89c52.2-79.76,491.78-731.35,1194.15-823.16
			c17.18-2.25,30-3.52,41.22-4.71c108.66-11.5,781.97-72.22,1331,387.75c78.59,65.84,205.06,184.61,322.35,365.74
			C3736.15,1470.81,3737.51,2496.57,3192.13,3058.73z"/>
		<g>
			<g>
				<path class="st1" d="M195.93,1221.13c4.29-14.33,24.98-13.38,27.88,1.29c28.01,141.87,113.1,511.59,272.69,716.79
					c259.85,334.13,409.24,855.21,206.4,1103.02C702.9,3042.24-271.54,2782.41,195.93,1221.13z"/>
				<path class="st2" d="M207.71,1421.35c-0.01,4.56,0.35,8.33,0.56,12.4l0.87,11.98l2.01,23.91c1.45,15.93,3.14,31.83,4.83,47.73
					c3.5,31.79,7.39,63.53,11.57,95.24c8.48,63.4,18.68,126.56,29.83,189.55c11.06,63.01,23.88,125.72,38.02,188.13
					c14.2,62.39,29.29,124.61,46.41,186.29c34,123.42,74.75,245.1,123.93,363.42c25.21,58.89,51.97,117.15,82.05,173.73
					c30.48,56.34,63.37,111.42,100.13,163.85c0.8,1.14,2.37,1.42,3.51,0.62c1.11-0.78,1.4-2.29,0.68-3.43l-0.02-0.03
					c-34.57-53.62-66.19-109.01-95.04-165.83c-29-56.75-54.68-115.13-78.8-174.09c-24.09-58.99-45.81-118.94-66.15-179.34
					c-20.33-60.42-38.14-121.65-55.61-182.97c-34.42-122.81-62.26-247.42-86.66-372.66c-12.07-62.66-22.87-125.56-32.56-188.64
					c-4.89-31.53-9.5-63.12-13.71-94.75l-5.94-47.49l-2.73-23.77l-1.23-11.89c-0.34-3.9-0.77-8.09-0.93-11.51l-0.03-0.57
					c-0.06-1.38-1.23-2.45-2.61-2.38C208.76,1418.92,207.72,1420.02,207.71,1421.35z"/>
			</g>
			<g>
				<path class="st3" d="M701.75,943.79c7.84-11.97,26.56-5.45,25.22,8.79c-13.02,137.74-35.85,500,54.52,731.73
					c147.15,377.3,141.99,895.91-111.63,1067.83C669.87,2752.14-152.86,2248.02,701.75,943.79z"/>
				<path class="st2" d="M657.9,1130.59c-1.25,4.19-1.95,7.74-2.87,11.53l-2.47,11.22l-4.69,22.48c-3.02,15-5.81,30.04-8.6,45.09
					c-5.47,30.1-10.57,60.28-15.39,90.49c-9.53,60.45-17.41,121.16-24.38,181.97c-7.06,60.8-12.41,121.81-16.47,182.9
					c-4,61.09-7.14,122.26-8.27,183.51c-2.49,122.46,1.7,245.17,14.53,367.09c7.06,60.88,15.72,121.61,27.88,181.71
					c12.59,59.99,27.74,119.47,47.17,177.57c0.43,1.29,1.82,1.98,3.11,1.55c1.25-0.42,1.95-1.75,1.58-3.01l-0.01-0.03
					c-17.05-58.61-30.93-118.03-41.87-178c-11.11-59.95-18.72-120.49-24.74-181.14c-5.99-60.67-9.55-121.57-11.73-182.5
					c-2.16-60.95-1.78-121.96-1.08-182.96c1.93-122.01,10.39-243.87,22.16-365.38c6.02-60.75,13.26-121.39,21.58-181.88
					c4.11-30.25,8.49-60.47,13.26-90.63l7.49-45.18l3.98-22.54l2.11-11.24c0.75-3.67,1.5-7.63,2.28-10.8l0.13-0.54
					c0.32-1.31-0.47-2.63-1.78-2.95C659.55,1128.61,658.27,1129.36,657.9,1130.59z"/>
			</g>
		</g>
		<g>
			<g>
				
					<ellipse transform="matrix(0.7071 -0.7071 0.7071 0.7071 -50.2337 1871.683)" class="st3" cx="2234.2" cy="996.48" rx="737.74" ry="737.74"/>
				<g>
					<linearGradient id="SVGID_2_" gradientUnits="userSpaceOnUse" x1="2090.9609" y1="1182.5472" x2="3346.8069" y2="-448.7554">
						<stop  offset="0" style="stop-color:#4F52FF"/>
						<stop  offset="1" style="stop-color:#4042E2"/>
					</linearGradient>
					<circle class="st4" cx="2234.2" cy="996.48" r="629.63"/>
					<path class="st5" d="M2234.2,1643.39c-356.71,0-646.91-290.2-646.91-646.91s290.2-646.91,646.91-646.91
						s646.91,290.21,646.91,646.91S2590.91,1643.39,2234.2,1643.39z M2234.2,384.13c-337.65,0-612.35,274.7-612.35,612.35
						c0,337.65,274.7,612.34,612.35,612.34s612.35-274.7,612.35-612.34C2846.55,658.83,2571.85,384.13,2234.2,384.13z"/>
				</g>
				<g>
					<linearGradient id="SVGID_3_" gradientUnits="userSpaceOnUse" x1="3136.915" y1="-1191.4508" x2="2302.6587" y2="830.5632">
						<stop  offset="0" style="stop-color:#4F52FF"/>
						<stop  offset="0.068" style="stop-color:#4B4DF6"/>
						<stop  offset="0.2156" style="stop-color:#4447EB"/>
						<stop  offset="0.4233" style="stop-color:#4143E4"/>
						<stop  offset="1" style="stop-color:#4042E2"/>
					</linearGradient>
					<circle class="st6" cx="2234.2" cy="996.48" r="383.85"/>
					<path class="st5" d="M2234.2,1397.61c-221.19,0-401.13-179.95-401.13-401.13s179.95-401.14,401.13-401.14
						s401.13,179.95,401.13,401.14S2455.39,1397.61,2234.2,1397.61z M2234.2,629.91c-202.13,0-366.57,164.44-366.57,366.57
						s164.44,366.57,366.57,366.57s366.57-164.44,366.57-366.57S2436.33,629.91,2234.2,629.91z"/>
				</g>
				<g>
					<linearGradient id="SVGID_4_" gradientUnits="userSpaceOnUse" x1="2368.4292" y1="708.3262" x2="1854.6775" y2="1811.2411">
						<stop  offset="0" style="stop-color:#E1473D"/>
						<stop  offset="1" style="stop-color:#E9605A"/>
					</linearGradient>
					<circle class="st7" cx="2234.2" cy="996.48" r="148.72"/>
					<path class="st5" d="M2234.2,1162.48c-91.53,0-166-74.47-166-166c0-91.53,74.47-166,166-166c91.53,0,166,74.47,166,166
						C2400.2,1088.01,2325.74,1162.48,2234.2,1162.48z M2234.2,865.05c-72.47,0-131.43,58.96-131.43,131.43
						c0,72.47,58.96,131.43,131.43,131.43s131.43-58.96,131.43-131.43C2365.64,924.01,2306.68,865.05,2234.2,865.05z"/>
				</g>
			</g>
		</g>
		<path class="st8" d="M3527.62,3589.89H2234.2V1433.04c0-28.97,23.48-52.45,52.45-52.45h1188.52c28.97,0,52.45,23.48,52.45,52.45
			V3589.89z"/>
		<g>
			<linearGradient id="SVGID_5_" gradientUnits="userSpaceOnUse" x1="2924.3838" y1="532.5378" x2="2881.2271" y2="1166.9344">
				<stop  offset="0" style="stop-color:#FF928E"/>
				<stop  offset="1" style="stop-color:#FE7062"/>
			</linearGradient>
			<polygon class="st9" points="2919.92,1297.37 2853,1297.37 2747.81,987.94 3040.21,970.18 			"/>
			<linearGradient id="SVGID_6_" gradientUnits="userSpaceOnUse" x1="2887.1782" y1="1027.5591" x2="2882.863" y2="315.4839">
				<stop  offset="0" style="stop-color:#FF928E"/>
				<stop  offset="1" style="stop-color:#FE7062"/>
			</linearGradient>
			<path class="st10" d="M2569.82,413.06c-0.33,26.12-0.33,537.46,259.25,620.5c259.58,83.04,376.82-349.61,367.52-657.74
				L2569.82,413.06z"/>
			<linearGradient id="SVGID_7_" gradientUnits="userSpaceOnUse" x1="2890.4167" y1="1304.6698" x2="2865.8042" y2="1707.7054">
				<stop  offset="0" style="stop-color:#FF928E"/>
				<stop  offset="1" style="stop-color:#FE7062"/>
			</linearGradient>
			<rect x="2678.96" y="1344.31" class="st11" width="414.99" height="50.38"/>
			<linearGradient id="SVGID_8_" gradientUnits="userSpaceOnUse" x1="2915.0583" y1="795.1837" x2="2893.48" y2="1209.4844">
				<stop  offset="0" style="stop-color:#FF928E"/>
				<stop  offset="1" style="stop-color:#FE7062"/>
			</linearGradient>
			<polygon class="st12" points="3093.95,1344.31 2678.96,1344.31 2783.99,1287.96 2988.93,1287.96 			"/>
			<linearGradient id="SVGID_9_" gradientUnits="userSpaceOnUse" x1="3326.2952" y1="-197.3783" x2="1892.7483" y2="1711.3785">
				<stop  offset="0" style="stop-color:#FF928E"/>
				<stop  offset="1" style="stop-color:#FE7062"/>
			</linearGradient>
			<path class="st13" d="M2539.74,340.51c-22.79,1.39-41.43,18.26-41.43,37.49v39.33c0,19.23,18.65,33.96,41.45,32.74l711.41-38.28
				c22.8-1.23,41.45-17.96,41.45-37.19v-44.92c0-19.23-18.64-33.83-41.43-32.45L2539.74,340.51z"/>
			<linearGradient id="SVGID_10_" gradientUnits="userSpaceOnUse" x1="3471.5635" y1="599.1147" x2="2975.2678" y2="1104.0415">
				<stop  offset="0" style="stop-color:#FF928E"/>
				<stop  offset="1" style="stop-color:#FE7062"/>
			</linearGradient>
			<path class="st14" d="M3012.89,1074.2c-16.58,0-30.88-10.48-32.81-24.68c-2.07-15.27,10.95-29.06,29.08-30.81
				c3.45-0.35,242.18-25.55,264.82-156.22c3.82-22.03,3.39-50.81-20.3-62.82c-19.55-9.92-51.57-6.76-74.45,7.33
				c-13.01,8.01-27.25,22.05-21.2,43.41c4.24,14.95-6.72,29.97-24.49,33.54c-17.76,3.57-35.6-5.66-39.84-20.61
				c-10.98-38.73,6.39-76.59,46.48-101.27c44.53-27.43,105.24-31.57,147.62-10.09c24.77,12.56,64.42,44.66,51.62,118.55
				c-12.66,73.06-73.66,131.58-176.42,169.24c-73.79,27.05-143.38,33.97-146.31,34.25
				C3015.41,1074.14,3014.15,1074.2,3012.89,1074.2z"/>
			<linearGradient id="SVGID_11_" gradientUnits="userSpaceOnUse" x1="2321.1997" y1="643.1306" x2="2899.4929" y2="1165.3214">
				<stop  offset="0" style="stop-color:#FF928E"/>
				<stop  offset="1" style="stop-color:#FE7062"/>
			</linearGradient>
			<path class="st15" d="M2765.29,1074.2c16.58,0,30.88-10.48,32.81-24.68c2.07-15.27-10.95-29.06-29.08-30.81
				c-3.45-0.35-242.18-25.55-264.82-156.22c-3.82-22.03-3.39-50.81,20.3-62.82c19.55-9.92,51.57-6.76,74.46,7.33
				c13.01,8.01,27.25,22.05,21.2,43.41c-4.24,14.95,6.72,29.97,24.49,33.54c17.76,3.57,35.6-5.66,39.84-20.61
				c10.98-38.73-6.39-76.59-46.48-101.27c-44.53-27.43-105.24-31.57-147.62-10.09c-24.77,12.56-64.42,44.66-51.62,118.55
				c12.65,73.06,73.66,131.58,176.42,169.24c73.79,27.05,143.38,33.97,146.31,34.25C2762.77,1074.14,2764.04,1074.2,2765.29,1074.2z
				"/>
			<path class="st16" d="M3055.78,372.89c-2.85,0-5.24-2.23-5.39-5.12c-0.16-2.98,2.13-5.53,5.11-5.69l63.53-3.42
				c2.99-0.12,5.53,2.13,5.69,5.11c0.16,2.98-2.13,5.53-5.11,5.69l-63.53,3.42C3055.98,372.89,3055.88,372.89,3055.78,372.89z"/>
			<path class="st16" d="M2569.8,399.04c-2.85,0-5.24-2.23-5.39-5.12c-0.16-2.98,2.13-5.53,5.11-5.69l379.55-20.42
				c2.97-0.17,5.53,2.13,5.69,5.11c0.16,2.98-2.13,5.53-5.11,5.69l-379.55,20.42C2570,399.04,2569.89,399.04,2569.8,399.04z"/>
			<path class="st16" d="M2863.69,975.59c-0.21,0-0.42-0.01-0.63-0.03c-68.73-7.91-123.67-63.87-163.3-166.35
				c-32.73-84.62-48.17-183.65-55.37-251.82c-0.31-2.97,1.84-5.63,4.81-5.95c2.98-0.28,5.63,1.84,5.95,4.81
				c12.35,117.03,57.45,391.11,209.15,408.56c2.97,0.34,5.09,3.02,4.75,5.99C2868.73,973.56,2866.4,975.59,2863.69,975.59z"/>
			<path class="st16" d="M2645.18,508.76c-2.83,0-5.2-2.2-5.39-5.06c-1.01-15.6-1.29-24.58-1.3-24.95
				c-0.09-2.99,2.26-5.48,5.24-5.56c3.2-0.2,5.48,2.26,5.56,5.24c0,0.09,0.28,9.18,1.28,24.57c0.19,2.98-2.07,5.55-5.04,5.75
				C2645.42,508.75,2645.3,508.76,2645.18,508.76z"/>
		</g>
		<linearGradient id="SVGID_12_" gradientUnits="userSpaceOnUse" x1="2942.5815" y1="1454.146" x2="2072.9158" y2="2669.0215">
			<stop  offset="0" style="stop-color:#FEBBBA"/>
			<stop  offset="1" style="stop-color:#FF928E"/>
		</linearGradient>
		<path class="st17" d="M2616.07,3614.12H1435.94V1867.98c0-22.33,18.1-40.42,40.42-40.42h1099.28c22.33,0,40.42,18.1,40.42,40.42
			V3614.12z"/>
		<path class="st8" d="M1800.28,3614.12H762.35V2371.48c0-28.97,23.48-52.45,52.45-52.45h933.04c28.97,0,52.45,23.48,52.45,52.45
			V3614.12z"/>
		<linearGradient id="SVGID_13_" gradientUnits="userSpaceOnUse" x1="1442.3087" y1="2160.4753" x2="517.0551" y2="3180.2798">
			<stop  offset="0" style="stop-color:#FEBBBA"/>
			<stop  offset="1" style="stop-color:#FF928E"/>
		</linearGradient>
		<path class="st18" d="M1023.64,3611.8H74.72v-918.25c0-22.33,18.1-40.42,40.42-40.42h868.07c22.33,0,40.42,18.1,40.42,40.42
			V3611.8z"/>
		<g>
			<g>
				
					<linearGradient id="SVGID_14_" gradientUnits="userSpaceOnUse" x1="6425.6274" y1="2603.4209" x2="6549.7637" y2="2603.4209" gradientTransform="matrix(1 0 0 1 -6108.8896 0)">
					<stop  offset="0" style="stop-color:#09005D"/>
					<stop  offset="1" style="stop-color:#1A0F91"/>
				</linearGradient>
				<path class="st19" d="M440.87,2647.62c0.01-0.93-0.05-1.86-0.28-2.8c-13.98-55.43-83.38-89.96-83.38-89.96l-17.77,1.39
					c-5.96,0.47-11.01,4.63-12.68,10.37c-12.94,44.43-10.53,71.62-8.08,83.58c0.03,0.03,0.05,0.04,0.08,0.07
					C341.44,2652.3,388.13,2653.62,440.87,2647.62z"/>
				
					<linearGradient id="SVGID_15_" gradientUnits="userSpaceOnUse" x1="6736.395" y1="2456.9763" x2="6284.7852" y2="2811.5815" gradientTransform="matrix(1 0 0 1 -6108.8896 0)">
					<stop  offset="0" style="stop-color:#4F52FF"/>
					<stop  offset="1" style="stop-color:#4042E2"/>
				</linearGradient>
				<path class="st20" d="M318.76,2650.27c1.22,4.46,4.51,7.93,8.73,8.81c32.27,6.79,83.55,1.32,105.09-1.49
					c4.75-0.62,8.22-5.01,8.3-9.97C388.13,2653.62,341.44,2652.3,318.76,2650.27z"/>
			</g>
			
				<linearGradient id="SVGID_16_" gradientUnits="userSpaceOnUse" x1="6480.6611" y1="2438.2192" x2="6451.4868" y2="2692.8335" gradientTransform="matrix(1 0 0 1 -6108.8896 0)">
				<stop  offset="0" style="stop-color:#FEBBBA"/>
				<stop  offset="1" style="stop-color:#FF928E"/>
			</linearGradient>
			<path class="st21" d="M344.59,2505.88l-14.29,66.24c1.01,4.85,4.74,8.49,9.26,8.91c5.53,0.52,13.4,0.82,21.32-0.34
				c7.1-1.04,12.04-8.26,10.78-16l18.48-58.82H344.59z"/>
			
				<linearGradient id="SVGID_17_" gradientUnits="userSpaceOnUse" x1="7068.272" y1="2273.0447" x2="6664.3848" y2="2590.1782" gradientTransform="matrix(1 0 0 1 -6108.8896 0)">
				<stop  offset="0" style="stop-color:#4F52FF"/>
				<stop  offset="1" style="stop-color:#4042E2"/>
			</linearGradient>
			<path class="st22" d="M827.23,2354.04c-27.16-0.76-41.21-3.96-48.47-6.93c-0.02,2.7,0,5.45,0.09,8.3
				c0.09,3.04,2.35,5.47,5.12,5.45l149.13-0.96c4.76-0.03,7.54-5.55,5.48-9.91C919.01,2351.6,869.21,2355.21,827.23,2354.04z"/>
			
				<linearGradient id="SVGID_18_" gradientUnits="userSpaceOnUse" x1="6887.6465" y1="2315.7004" x2="7047.5449" y2="2315.7004" gradientTransform="matrix(1 0 0 1 -6108.8896 0)">
				<stop  offset="0" style="stop-color:#09005D"/>
				<stop  offset="1" style="stop-color:#1A0F91"/>
			</linearGradient>
			<path class="st23" d="M938.58,2349.98c0.04-0.1,0.03-0.07,0.08-0.17c-12.67-18.06-46.22-55.72-113.67-71.9l-24.77-0.78
				c-4.48-0.14-8.54,2.53-10.23,6.68c-4.19,10.25-11.03,31.75-11.21,63.29c7.26,2.97,21.31,6.17,48.47,6.93
				C869.22,2355.21,919.04,2351.6,938.58,2349.98z"/>
			
				<linearGradient id="SVGID_19_" gradientUnits="userSpaceOnUse" x1="7865.0054" y1="2148.7009" x2="7843.7993" y2="2333.7722" gradientTransform="matrix(0.9629 0.2699 -0.2699 0.9629 -6155.21 -1974.7611)">
				<stop  offset="0" style="stop-color:#FEBBBA"/>
				<stop  offset="1" style="stop-color:#FF928E"/>
			</linearGradient>
			<path class="st24" d="M806.88,2231.8c-0.3,2.38-5.83,38.24-7.97,52.14c-0.51,3.3,1.11,6.43,3.93,7.59
				c5.04,2.08,13.32,5.02,21.12,5.57c4.21,0.3,8.17-2.72,9.41-7.16l15.26-54.45L806.88,2231.8z"/>
			<linearGradient id="SVGID_20_" gradientUnits="userSpaceOnUse" x1="333.4589" y1="2201.1436" x2="932.2137" y2="2201.1436">
				<stop  offset="0" style="stop-color:#09005D"/>
				<stop  offset="1" style="stop-color:#1A0F91"/>
			</linearGradient>
			<path class="st25" d="M499.93,1861.97c0,0-35.61,53.41-47.48,130.56c-10.92,70.98-103.95,469.5-118.76,532.8
				c-1.13,4.81,1.91,9.55,6.74,10.64c9.13,2.06,23.77,4.78,35.77,4.3c6.38-0.26,12.03-4.19,14.56-10.05l221.93-513.94
				c0,0,147.59-28.43,201.78,35.61c32.51,38.42,11.13,106.08-17.8,201.78c0,0,35.61,17.8,59.35,5.93c0,0,110.64-172.93,65.28-278.93
				c-21-49.07-111.64-97.43-201.78-106.82L499.93,1861.97z"/>
			<linearGradient id="SVGID_21_" gradientUnits="userSpaceOnUse" x1="-62.6853" y1="2204.8032" x2="869.5837" y2="1453.8082">
				<stop  offset="0" style="stop-color:#FF928E"/>
				<stop  offset="1" style="stop-color:#FE7062"/>
			</linearGradient>
			<path class="st26" d="M499.93,1861.97l53.41-474.77c0,0,231.45,0,379.82,83.08l-192.05,400.57
				c-10.3,21.49-31.99,35.27-55.82,35.16C644.58,1905.82,576.77,1898.56,499.93,1861.97z"/>
			<linearGradient id="SVGID_22_" gradientUnits="userSpaceOnUse" x1="27.6061" y1="2316.8848" x2="959.8724" y2="1565.8918">
				<stop  offset="0" style="stop-color:#FF928E"/>
				<stop  offset="1" style="stop-color:#FE7062"/>
			</linearGradient>
			<path class="st27" d="M1126.04,1342.69c0,0-14.84,151.33-192.88,127.59c0,0-68.34,75.38-69.78,141.54
				c0,0,324.97,83.97,295.29-254.3L1126.04,1342.69z"/>
			<linearGradient id="SVGID_23_" gradientUnits="userSpaceOnUse" x1="585.7687" y1="1755.2902" x2="345.4159" y2="2001.5776">
				<stop  offset="0" style="stop-color:#FEBBBA"/>
				<stop  offset="1" style="stop-color:#FF928E"/>
			</linearGradient>
			<path class="st28" d="M476.2,1808.56c0,0,23.74-41.54,59.35-35.61c35.61,5.93,53.41,41.54,53.41,41.54s-35.61,17.8-59.35,29.67
				C505.87,1856.03,464.33,1844.17,476.2,1808.56z"/>
			<linearGradient id="SVGID_24_" gradientUnits="userSpaceOnUse" x1="-133.0361" y1="2117.467" x2="799.2328" y2="1366.4719">
				<stop  offset="0" style="stop-color:#FF928E"/>
				<stop  offset="1" style="stop-color:#FE7062"/>
			</linearGradient>
			<path class="st29" d="M547.41,1535.56c0,0-302.67,136.5-71.22,272.99l5.02,29.61c0,0-184.05,26.71-191.96-186.87
				c-5.93-160.24,264.09-264.09,264.09-264.09L547.41,1535.56z"/>
			
				<linearGradient id="SVGID_25_" gradientUnits="userSpaceOnUse" x1="7813.3555" y1="1195.1663" x2="7708.2456" y2="1649.3912" gradientTransform="matrix(0.9428 0.3334 -0.3334 0.9428 -6136.5225 -2456.127)">
				<stop  offset="0" style="stop-color:#FEBBBA"/>
				<stop  offset="1" style="stop-color:#FF928E"/>
			</linearGradient>
			<path class="st30" d="M741.99,1315.94l-43.61,93.25c0,0,48.55,35.58,97.94,21.67l12.74-132.4L741.99,1315.94z"/>
			<g>
				
					<linearGradient id="SVGID_26_" gradientUnits="userSpaceOnUse" x1="4506.2412" y1="4561.0698" x2="4361.7305" y2="4752.2461" gradientTransform="matrix(0.8819 -0.4713 0.4713 0.8819 -5298.8882 -670.0543)">
					<stop  offset="0" style="stop-color:#FEBBBA"/>
					<stop  offset="1" style="stop-color:#FF928E"/>
				</linearGradient>
				<path class="st31" d="M849.42,1214.46c0.9,1.68,19.24,126.3,19.24,126.3l-71.38,8.96l-34.94-115.53
					C762.35,1234.19,834.38,1186.33,849.42,1214.46z"/>
				
					<linearGradient id="SVGID_27_" gradientUnits="userSpaceOnUse" x1="4395.877" y1="4606.981" x2="4568.499" y2="4606.981" gradientTransform="matrix(0.8819 -0.4713 0.4713 0.8819 -5298.8882 -670.0543)">
					<stop  offset="0" style="stop-color:#09005D"/>
					<stop  offset="1" style="stop-color:#1A0F91"/>
				</linearGradient>
				<path class="st32" d="M788.64,1245.92c-2.05,2.46-2.85,5.72-2.16,8.85l13.43,61.36c0.2,0.93,0.52,1.82,0.97,2.66
					c2.5,4.62,11.65,18.69,25.82,8.5c12.07-8.68,23.29-16.5,33-18.01c5.67-0.88,10.93,3.12,11.75,8.8
					c1.68,11.7,4.59,35.37,4.22,56.77c-0.09,5.36-4.34,9.72-9.7,10.04c-14.13,0.85-41.77,1.68-64.58-2.65
					c-3.75-0.71-6.79-3.42-7.93-7.05c-5.05-16.01-19.4-60.83-25.39-72.85c-5.57-11.18-22.1-13.24-29.75-13.58
					c-2.9-0.13-5.6-1.45-7.48-3.66c-5.64-6.64-14.41-21.41,2.93-35.57c4.31-3.52,4.88-9.95,1.45-14.34
					c-6.15-7.85-11.43-20.49,2.05-33.53c13.65-13.2,28.89-9.67,38.53-5.05c4.27,2.04,9.57,1.23,12.67-2.34
					c1.38-1.59,3.41-2.65,6.39-2.28c5.63,0.71,10.71-2.95,11.45-8.57c1.27-9.64,6.57-20.95,23.68-24.02
					c31.39-5.64,46.61,25.9,45.76,47.92s-35.23,26.2-54.66,22.29C806.83,1226.72,794.29,1239.13,788.64,1245.92z"/>
				
					<linearGradient id="SVGID_28_" gradientUnits="userSpaceOnUse" x1="4294.5879" y1="4712.4668" x2="4410.499" y2="4593.5449" gradientTransform="matrix(0.8819 -0.4713 0.4713 0.8819 -5298.8882 -670.0543)">
					<stop  offset="0" style="stop-color:#FEBBBA"/>
					<stop  offset="1" style="stop-color:#FF928E"/>
				</linearGradient>
				<path class="st33" d="M773.25,1324.94c0,0-0.17-38.43-15.68-42.25c-15.5-3.81-32.43,7.21-19.43,30.39
					C754.31,1341.92,773.25,1324.94,773.25,1324.94z"/>
			</g>
			<linearGradient id="SVGID_29_" gradientUnits="userSpaceOnUse" x1="1421.6527" y1="795.8594" x2="1295.0614" y2="1005.8862">
				<stop  offset="0" style="stop-color:#4F52FF"/>
				<stop  offset="1" style="stop-color:#4042E2"/>
			</linearGradient>
			<polygon class="st34" points="882.72,1247.73 1375.29,1170.58 1369.36,1324.88 882.72,1283.34 			"/>
			<linearGradient id="SVGID_30_" gradientUnits="userSpaceOnUse" x1="1782.7292" y1="875.5184" x2="1572.7025" y2="1065.4055">
				<stop  offset="0" style="stop-color:#09005D"/>
				<stop  offset="1" style="stop-color:#1A0F91"/>
			</linearGradient>
			<path class="st35" d="M1358.38,1165.16c-2.61,30.55-0.04,126.71,1.39,158.4c0.26,5.74,4.98,10.23,10.72,10.23h8.34
				c6.52,0,12.12-4.74,13.16-11.17c9.2-56.76,13.88-110.13,10.73-157.61c-0.35-5.23-4.77-9.25-10.02-9.25h-24.03
				C1363.31,1155.75,1358.83,1159.81,1358.38,1165.16z"/>
			<linearGradient id="SVGID_31_" gradientUnits="userSpaceOnUse" x1="904.6956" y1="1232.6582" x2="786.0029" y2="1407.7302">
				<stop  offset="0" style="stop-color:#4F52FF"/>
				<stop  offset="1" style="stop-color:#4042E2"/>
			</linearGradient>
			<path class="st36" d="M892.11,1238.83h-14.55c-2.32,0-4.3,1.63-4.8,3.9c-3.17,14.42-0.8,36.18,0.44,45.28
				c0.33,2.42,2.39,4.23,4.83,4.23h9.23c2.48,0,4.57-1.87,4.85-4.34l4.85-43.66C897.28,1241.36,895.01,1238.83,892.11,1238.83z"/>
			<linearGradient id="SVGID_32_" gradientUnits="userSpaceOnUse" x1="1126.0397" y1="1313.4912" x2="1196.8358" y2="1313.4912">
				<stop  offset="0" style="stop-color:#FEBBBA"/>
				<stop  offset="1" style="stop-color:#FF928E"/>
			</linearGradient>
			<path class="st37" d="M1126.04,1342.69c0,0,2.69-34.36,7.28-37.95c4.59-3.59,40.2-39.2,46.13-39.2s11.87,11.87,0,17.8
				c-11.87,5.93-14.82,24.07-14.82,24.07l32.21,2.75c0,0-23.32,44.4-35.19,50.34C1149.78,1366.43,1126.04,1342.69,1126.04,1342.69z"
				/>
		</g>
		<g>
			<linearGradient id="SVGID_33_" gradientUnits="userSpaceOnUse" x1="3069.3994" y1="4725.8887" x2="3054.49" y2="3349.2292">
				<stop  offset="0" style="stop-color:#4F52FF"/>
				<stop  offset="1" style="stop-color:#4042E2"/>
			</linearGradient>
			<path class="st38" d="M2479.97,3109.16l12.11,376.74c2.11,65.69,56.02,117.97,122.06,118.36l902.17,5.32
				c44.13,0.26,81.73-31.81,88.18-75.27c14.11-95.14,32.08-265.37,11.84-425.15H2479.97z"/>
			<path class="st5" d="M3491.68,3587.54c0,0-0.01,0-0.01,0l-12.94-0.08c-1.19-0.01-2.15-0.98-2.15-2.17
				c0.01-1.19,0.78-2.17,2.17-2.15l12.94,0.08c1.19,0.01,2.15,0.98,2.15,2.17C3493.83,3586.58,3492.86,3587.54,3491.68,3587.54z
				 M3448.53,3587.29c0,0-0.01,0-0.01,0l-12.95-0.08c-1.19-0.01-2.15-0.98-2.15-2.17c0.01-1.19,0.97-2.15,2.16-2.15
				c0,0,0.01,0,0.01,0l12.95,0.08c1.19,0.01,2.15,0.98,2.15,2.17C3450.68,3586.33,3449.71,3587.29,3448.53,3587.29z
				 M3405.37,3587.03c0,0-0.01,0-0.01,0l-12.95-0.08c-1.19-0.01-2.15-0.98-2.15-2.17c0.01-1.19,0.97-2.15,2.16-2.15
				c0,0,0.01,0,0.01,0l12.95,0.08c1.19,0.01,2.15,0.98,2.15,2.17C3407.52,3586.07,3406.56,3587.03,3405.37,3587.03z
				 M3362.22,3586.78c0,0-0.01,0-0.01,0l-12.95-0.08c-1.19-0.01-2.15-0.98-2.15-2.17c0.01-1.19,0.97-2.15,2.16-2.15
				c0,0,0.01,0,0.01,0l12.95,0.08c1.19,0.01,2.15,0.98,2.15,2.17C3364.36,3585.82,3363.4,3586.78,3362.22,3586.78z M3319.06,3586.52
				c0,0-0.01,0-0.01,0l-12.95-0.08c-1.19-0.01-2.15-0.98-2.15-2.17c0.01-1.19,1.07-2.34,2.17-2.15l12.95,0.08
				c1.19,0.01,2.15,0.98,2.15,2.17C3321.21,3585.57,3320.24,3586.52,3319.06,3586.52z M3275.9,3586.27c0,0-0.01,0-0.01,0
				l-12.95-0.08c-1.19-0.01-2.15-0.98-2.15-2.17c0.01-1.19,0.97-2.15,2.16-2.15c0,0,0.01,0,0.01,0l12.95,0.08
				c1.19,0.01,2.15,0.98,2.15,2.17C3278.05,3585.31,3277.09,3586.27,3275.9,3586.27z M3232.75,3586.01c0,0-0.01,0-0.01,0
				l-12.95-0.08c-1.19-0.01-2.15-0.98-2.15-2.17c0.01-1.19,0.97-2.15,2.16-2.15c0,0,0.01,0,0.01,0l12.95,0.08
				c1.19,0.01,2.15,0.98,2.15,2.17C3234.9,3585.06,3233.94,3586.01,3232.75,3586.01z M3189.6,3585.76c0,0-0.01,0-0.01,0l-12.95-0.08
				c-1.19-0.01-2.15-0.98-2.15-2.17c0.01-1.19,0.97-2.15,2.16-2.15c0,0,0.01,0,0.01,0l12.95,0.08c1.19,0.01,2.15,0.98,2.15,2.17
				C3191.74,3584.8,3190.78,3585.76,3189.6,3585.76z M3146.44,3585.5c0,0-0.01,0-0.01,0l-12.95-0.08c-1.19-0.01-2.15-0.98-2.15-2.17
				c0.01-1.19,0.97-2.15,2.16-2.15c0,0,0.01,0,0.01,0l12.95,0.08c1.19,0.01,2.15,0.98,2.15,2.17
				C3148.59,3584.55,3147.62,3585.5,3146.44,3585.5z M3103.28,3585.25c0,0-0.01,0-0.01,0l-12.95-0.08
				c-1.19-0.01-2.15-0.98-2.15-2.17c0.01-1.19,0.97-2.15,2.16-2.15c0,0,0.01,0,0.01,0l12.95,0.08c1.19,0.01,2.15,0.98,2.15,2.17
				C3105.43,3584.29,3104.47,3585.25,3103.28,3585.25z M3060.13,3585c0,0-0.01,0-0.01,0l-12.95-0.08c-1.19-0.01-2.15-0.98-2.15-2.17
				c0.01-1.2,0.92-2.01,2.17-2.15l12.95,0.08c1.19,0.01,2.15,0.98,2.15,2.17C3062.28,3584.04,3061.31,3585,3060.13,3585z
				 M3016.97,3584.74c0,0-0.01,0-0.01,0l-12.94-0.08c-1.19-0.01-2.15-0.98-2.15-2.17c0.01-1.19,0.97-2.15,2.16-2.15
				c0,0,0.01,0,0.01,0l12.94,0.08c1.19,0.01,2.15,0.98,2.15,2.17C3019.12,3583.78,3018.15,3584.74,3016.97,3584.74z
				 M2973.82,3584.49c0,0-0.01,0-0.01,0l-12.95-0.08c-1.19-0.01-2.15-0.98-2.15-2.17c0.01-1.19,0.97-2.15,2.16-2.15
				c0,0,0.01,0,0.01,0l12.95,0.08c1.19,0.01,2.15,0.98,2.15,2.17C2975.97,3583.53,2975,3584.49,2973.82,3584.49z M2930.66,3584.23
				c0,0-0.01,0-0.01,0l-12.95-0.08c-1.19-0.01-2.15-0.98-2.15-2.17c0.01-1.19,0.97-2.15,2.16-2.15c0,0,0.01,0,0.01,0l12.95,0.08
				c1.19,0.01,2.15,0.98,2.15,2.17C2932.81,3583.28,2931.85,3584.23,2930.66,3584.23z M2887.51,3583.98c0,0-0.01,0-0.01,0
				l-12.95-0.08c-1.19-0.01-2.15-0.98-2.15-2.17c0.01-1.19,0.97-2.15,2.16-2.15c0,0,0.01,0,0.01,0l12.95,0.08
				c1.19,0.01,2.15,0.98,2.15,2.17C2889.66,3583.02,2888.69,3583.98,2887.51,3583.98z M2844.35,3583.72c0,0-0.01,0-0.01,0
				l-12.95-0.08c-1.19-0.01-2.15-0.98-2.15-2.17c0.01-1.19,0.97-2.15,2.16-2.15c0,0,0.01,0,0.01,0l12.95,0.08
				c1.19,0.01,2.15,0.98,2.15,2.17C2846.5,3582.77,2845.53,3583.72,2844.35,3583.72z M2801.19,3583.47c0,0-0.01,0-0.01,0
				l-12.95-0.08c-1.19-0.01-2.15-0.98-2.15-2.17c0.01-1.19,0.97-2.15,2.16-2.15c0,0,0.01,0,0.01,0l12.95,0.08
				c1.19,0.01,2.15,0.98,2.15,2.17C2803.34,3582.52,2802.38,3583.47,2801.19,3583.47z M2758.04,3583.21c0,0-0.01,0-0.01,0
				l-12.95-0.08c-1.19-0.01-2.15-0.98-2.15-2.17c0.01-1.19,0.97-2.15,2.16-2.15c0,0,0.01,0,0.01,0l12.95,0.08
				c1.19,0.01,2.15,0.98,2.15,2.17C2760.19,3582.26,2759.23,3583.21,2758.04,3583.21z M3521.41,3583.15c-0.9,0-1.74-0.57-2.04-1.47
				c-0.38-1.13,0.23-2.35,1.36-2.73c3.97-1.33,7.87-2.99,11.6-4.93c1.07-0.54,2.36-0.13,2.91,0.92c0.55,1.06,0.14,2.36-0.92,2.91
				c-3.94,2.04-8.05,3.78-12.22,5.18C3521.87,3583.12,3521.64,3583.15,3521.41,3583.15z M2714.89,3582.96c0,0-0.01,0-0.01,0
				l-12.95-0.08c-1.19-0.01-2.15-0.98-2.15-2.17c0.01-1.19,0.97-2.15,2.16-2.15c0,0,0.01,0,0.01,0l12.95,0.08
				c1.19,0.01,2.15,0.98,2.15,2.17C2717.03,3582.01,2716.07,3582.96,2714.89,3582.96z M2671.73,3582.71c0,0-0.01,0-0.01,0
				l-12.95-0.08c-1.19-0.01-2.15-0.98-2.15-2.17c0.01-1.19,0.97-2.15,2.16-2.15c0,0,0.01,0,0.01,0l12.95,0.08
				c1.19,0.01,2.15,0.98,2.15,2.17C2673.88,3581.75,2672.91,3582.71,2671.73,3582.71z M2628.59,3582.26c-0.04,0-0.09,0-0.14,0
				c-4.38-0.27-8.78-0.8-13.09-1.55c-1.17-0.2-1.96-1.32-1.75-2.49c0.2-1.18,1.33-1.98,2.5-1.75c4.15,0.72,8.39,1.22,12.61,1.49
				c1.19,0.08,2.09,1.1,2.02,2.29C2630.67,3581.38,2629.72,3582.26,2628.59,3582.26z M2586.97,3571.79c-0.3,0-0.61-0.06-0.91-0.2
				c-3.96-1.83-7.88-3.9-11.63-6.16c-1.02-0.62-1.35-1.94-0.74-2.96c0.62-1.02,1.94-1.34,2.96-0.74c3.62,2.18,7.4,4.18,11.21,5.94
				c1.08,0.5,1.56,1.78,1.06,2.86C2588.56,3571.32,2587.78,3571.79,2586.97,3571.79z M3557.12,3559.76c-0.52,0-1.04-0.19-1.45-0.56
				c-0.88-0.8-0.95-2.17-0.15-3.05c2.82-3.11,5.41-6.46,7.71-9.96c0.65-1,1.99-1.27,2.99-0.62c0.99,0.65,1.27,1.99,0.62,2.99
				c-2.42,3.69-5.15,7.22-8.11,10.49C3558.29,3559.52,3557.7,3559.76,3557.12,3559.76z M2551.96,3547c-0.56,0-1.13-0.22-1.55-0.66
				c-3.06-3.15-5.97-6.49-8.64-9.94c-0.73-0.94-0.56-2.3,0.38-3.03c0.93-0.74,2.29-0.57,3.03,0.38c2.58,3.32,5.38,6.54,8.34,9.58
				c0.83,0.85,0.8,2.22-0.05,3.05C2553.04,3546.8,2552.5,3547,2551.96,3547z M3576.72,3521.86c-0.15,0-0.31-0.02-0.47-0.05
				c-1.16-0.26-1.9-1.41-1.64-2.57c0.43-1.9,0.78-3.83,1.07-5.78l1-6.84c0.17-1.18,1.26-1.96,2.45-1.82
				c1.18,0.17,1.99,1.27,1.82,2.45l-1.01,6.84c-0.3,2.06-0.68,4.09-1.12,6.09C3578.61,3521.18,3577.71,3521.86,3576.72,3521.86z
				 M2528.24,3511.26c-0.84,0-1.64-0.49-1.98-1.31c-1.71-4.02-3.2-8.2-4.45-12.42c-0.34-1.14,0.32-2.34,1.46-2.68
				c1.13-0.33,2.34,0.31,2.68,1.46c1.2,4.06,2.64,8.08,4.28,11.95c0.47,1.1-0.05,2.36-1.14,2.83
				C2528.81,3511.21,2528.53,3511.26,2528.24,3511.26z M3582.91,3479.16c-0.09,0-0.19,0-0.28-0.02c-1.18-0.15-2.02-1.23-1.87-2.41
				c0.54-4.19,1.07-8.47,1.61-12.84c0.14-1.18,1.28-2.04,2.4-1.88c1.18,0.14,2.02,1.22,1.88,2.4c-0.53,4.38-1.07,8.67-1.61,12.86
				C3584.9,3478.36,3583.97,3479.16,3582.91,3479.16z M2519.16,3469.33c-1.16,0-2.12-0.92-2.16-2.09l-0.42-12.94
				c-0.04-1.19,0.9-2.19,2.09-2.23c1.16-0.04,2.18,0.9,2.23,2.09l0.42,12.94c0.04,1.19-0.9,2.19-2.09,2.23
				C2519.21,3469.33,2519.18,3469.33,2519.16,3469.33z M3587.92,3436.28c-0.08,0-0.15,0-0.23-0.01c-1.18-0.13-2.04-1.19-1.92-2.37
				c0.45-4.23,0.88-8.52,1.32-12.87c0.12-1.18,1.18-2.04,2.36-1.93c1.18,0.12,2.05,1.17,1.93,2.36c-0.43,4.36-0.87,8.66-1.32,12.9
				C3589.94,3435.46,3589.01,3436.28,3587.92,3436.28z M2517.77,3426.2c-1.16,0-2.12-0.92-2.16-2.09l-0.42-12.94
				c-0.04-1.19,0.9-2.19,2.09-2.23c1.37-0.1,2.19,0.9,2.23,2.09l0.42,12.93c0.04,1.19-0.9,2.19-2.09,2.23
				C2517.82,3426.2,2517.79,3426.2,2517.77,3426.2z M3591.96,3393.31c-0.06,0-0.12,0-0.18-0.01c-1.19-0.1-2.07-1.14-1.97-2.33
				c0.35-4.26,0.69-8.56,1.02-12.89c0.09-1.18,1.02-2.11,2.32-1.99c1.19,0.09,2.08,1.13,1.99,2.32c-0.33,4.35-0.67,8.65-1.02,12.92
				C3594.01,3392.45,3593.06,3393.31,3591.96,3393.31z M2516.39,3383.07c-1.16,0-2.12-0.92-2.16-2.09l-0.42-12.95
				c-0.04-1.19,0.9-2.19,2.09-2.23c1.1,0.08,2.19,0.9,2.23,2.09l0.42,12.95c0.04,1.19-0.9,2.19-2.09,2.23
				C2516.43,3383.07,2516.41,3383.07,2516.39,3383.07z M3594.98,3350.25c-0.04,0-0.08,0-0.13,0c-1.19-0.07-2.1-1.09-2.03-2.28
				c0.25-4.27,0.48-8.58,0.7-12.91c0.05-1.19,0.87-2.14,2.26-2.04c1.19,0.06,2.11,1.07,2.04,2.26c-0.22,4.34-0.46,8.66-0.7,12.94
				C3597.07,3349.37,3596.12,3350.25,3594.98,3350.25z M2515,3339.93c-1.16,0-2.12-0.92-2.16-2.09l-0.42-12.93
				c-0.04-1.19,0.9-2.19,2.09-2.23c1.07,0.03,2.19,0.9,2.23,2.09l0.42,12.94c0.04,1.19-0.9,2.19-2.09,2.23
				C2515.05,3339.93,2515.02,3339.93,2515,3339.93z M3596.93,3307.13c-0.02,0-0.05,0-0.07,0c-1.19-0.04-2.12-1.04-2.09-2.23
				c0.14-4.29,0.26-8.59,0.36-12.93c0.03-1.19,1.21-2.18,2.21-2.11c1.19,0.03,2.13,1.02,2.11,2.21c-0.1,4.34-0.22,8.66-0.36,12.97
				C3599.05,3306.21,3598.09,3307.13,3596.93,3307.13z M2513.61,3296.79c-1.16,0-2.12-0.92-2.16-2.09l-0.41-12.94
				c-0.04-1.19,0.9-2.19,2.09-2.23c1.26-0.01,2.19,0.9,2.23,2.09l0.41,12.94c0.04,1.19-0.9,2.19-2.09,2.23
				C2513.66,3296.79,2513.63,3296.79,2513.61,3296.79z M3597.71,3263.99C3597.7,3263.99,3597.7,3263.99,3597.71,3263.99
				c-1.2,0-2.16-0.98-2.16-2.17l0.01-5.46l-0.02-7.47c0-1.19,0.96-2.17,2.15-2.17c0,0,0.01,0,0.01,0c1.19,0,2.15,0.96,2.16,2.15
				l0.02,7.49l-0.01,5.47C3599.86,3263.03,3598.9,3263.99,3597.71,3263.99z M2512.22,3253.66c-1.16,0-2.12-0.92-2.16-2.09
				l-0.42-12.94c-0.04-1.19,0.9-2.19,2.09-2.23c0.03,0,0.05,0,0.07,0c1.16,0,2.12,0.92,2.16,2.09l0.42,12.95
				c0.04,1.19-0.9,2.19-2.09,2.23C2512.27,3253.66,2512.24,3253.66,2512.22,3253.66z M3597.21,3220.85c-1.17,0-2.12-0.93-2.16-2.1
				c-0.12-4.3-0.26-8.61-0.42-12.92c-0.04-1.19,0.89-2.19,2.08-2.24c1.29,0.04,2.19,0.89,2.24,2.08c0.16,4.33,0.3,8.64,0.42,12.96
				c0.03,1.19-0.91,2.18-2.1,2.22C3597.25,3220.85,3597.23,3220.85,3597.21,3220.85z M2510.84,3210.53c-1.16,0-2.12-0.92-2.16-2.09
				l-0.42-12.95c-0.04-1.19,0.9-2.19,2.09-2.23c1.22,0.1,2.19,0.9,2.23,2.09l0.42,12.94c0.04,1.19-0.9,2.19-2.09,2.23
				C2510.88,3210.53,2510.86,3210.53,2510.84,3210.53z M3595.29,3177.74c-1.13,0-2.08-0.88-2.15-2.02c-0.27-4.29-0.56-8.6-0.88-12.9
				c-0.08-1.19,0.81-2.22,2-2.31c1.15-0.14,2.22,0.8,2.31,2c0.31,4.32,0.61,8.63,0.88,12.94c0.08,1.19-0.83,2.21-2.02,2.29
				C3595.38,3177.74,3595.33,3177.74,3595.29,3177.74z M2509.45,3167.39c-1.16,0-2.12-0.92-2.16-2.09l-0.42-12.94
				c-0.04-1.19,0.9-2.19,2.09-2.23c1.19,0.04,2.19,0.9,2.23,2.09l0.42,12.94c0.04,1.19-0.9,2.19-2.09,2.23
				C2509.5,3167.39,2509.47,3167.39,2509.45,3167.39z M3591.76,3134.73c-1.09,0-2.03-0.83-2.14-1.94c-0.44-4.29-0.91-8.57-1.4-12.85
				c-0.14-1.18,0.72-2.25,1.9-2.39c1.08-0.14,2.25,0.71,2.39,1.9c0.49,4.3,0.96,8.6,1.4,12.9c0.12,1.18-0.74,2.25-1.93,2.36
				C3591.91,3134.72,3591.84,3134.73,3591.76,3134.73z M2508.06,3124.26c-1.16,0-2.12-0.92-2.16-2.09l-0.42-12.94
				c-0.04-1.19,0.9-2.19,2.09-2.23c1.4-0.02,2.19,0.9,2.23,2.09l0.42,12.93c0.04,1.19-0.9,2.19-2.09,2.23
				C2508.11,3124.26,2508.08,3124.26,2508.06,3124.26z M3569.49,3111.32h-12.95c-1.19,0-2.16-0.96-2.16-2.16
				c0-1.19,0.97-2.16,2.16-2.16h12.95c1.19,0,2.16,0.97,2.16,2.16C3571.65,3110.36,3570.68,3111.32,3569.49,3111.32z
				 M3526.33,3111.32h-12.95c-1.19,0-2.16-0.96-2.16-2.16c0-1.19,0.97-2.16,2.16-2.16h12.95c1.19,0,2.16,0.97,2.16,2.16
				C3528.49,3110.36,3527.52,3111.32,3526.33,3111.32z M3483.18,3111.32h-12.95c-1.19,0-2.16-0.96-2.16-2.16
				c0-1.19,0.97-2.16,2.16-2.16h12.95c1.19,0,2.16,0.97,2.16,2.16C3485.33,3110.36,3484.37,3111.32,3483.18,3111.32z
				 M3440.02,3111.32h-12.95c-1.19,0-2.16-0.96-2.16-2.16c0-1.19,0.97-2.16,2.16-2.16h12.95c1.19,0,2.16,0.97,2.16,2.16
				C3442.18,3110.36,3441.21,3111.32,3440.02,3111.32z M3396.86,3111.32h-12.95c-1.19,0-2.16-0.96-2.16-2.16
				c0-1.19,0.97-2.16,2.16-2.16h12.95c1.19,0,2.16,0.97,2.16,2.16C3399.02,3110.36,3398.06,3111.32,3396.86,3111.32z
				 M3353.71,3111.32h-12.95c-1.19,0-2.16-0.96-2.16-2.16c0-1.19,0.97-2.16,2.16-2.16h12.95c1.19,0,2.16,0.97,2.16,2.16
				C3355.86,3110.36,3354.9,3111.32,3353.71,3111.32z M3310.55,3111.32h-12.95c-1.19,0-2.16-0.96-2.16-2.16
				c0-1.19,0.97-2.16,2.16-2.16h12.95c1.19,0,2.16,0.97,2.16,2.16C3312.71,3110.36,3311.74,3111.32,3310.55,3111.32z
				 M3267.39,3111.32h-12.95c-1.19,0-2.16-0.96-2.16-2.16c0-1.19,0.97-2.16,2.16-2.16h12.95c1.19,0,2.16,0.97,2.16,2.16
				C3269.55,3110.36,3268.59,3111.32,3267.39,3111.32z M3224.24,3111.32h-12.95c-1.19,0-2.16-0.96-2.16-2.16
				c0-1.19,0.97-2.16,2.16-2.16h12.95c1.19,0,2.16,0.97,2.16,2.16C3226.4,3110.36,3225.43,3111.32,3224.24,3111.32z
				 M3181.08,3111.32h-12.95c-1.19,0-2.16-0.96-2.16-2.16c0-1.19,0.97-2.16,2.16-2.16h12.95c1.19,0,2.16,0.97,2.16,2.16
				C3183.24,3110.36,3182.27,3111.32,3181.08,3111.32z M3137.93,3111.32h-12.95c-1.19,0-2.16-0.96-2.16-2.16
				c0-1.19,0.97-2.16,2.16-2.16h12.95c1.19,0,2.16,0.97,2.16,2.16C3140.08,3110.36,3139.12,3111.32,3137.93,3111.32z
				 M3094.77,3111.32h-12.95c-1.19,0-2.16-0.96-2.16-2.16c0-1.19,0.97-2.16,2.16-2.16h12.95c1.19,0,2.16,0.97,2.16,2.16
				C3096.93,3110.36,3095.96,3111.32,3094.77,3111.32z M3051.61,3111.32h-12.95c-1.19,0-2.16-0.96-2.16-2.16
				c0-1.19,0.97-2.16,2.16-2.16h12.95c1.19,0,2.16,0.97,2.16,2.16C3053.77,3110.36,3052.81,3111.32,3051.61,3111.32z
				 M3008.46,3111.32h-12.95c-1.19,0-2.16-0.96-2.16-2.16c0-1.19,0.97-2.16,2.16-2.16h12.95c1.19,0,2.16,0.97,2.16,2.16
				C3010.61,3110.36,3009.65,3111.32,3008.46,3111.32z M2965.3,3111.32h-12.95c-1.19,0-2.16-0.96-2.16-2.16
				c0-1.19,0.97-2.16,2.16-2.16h12.95c1.19,0,2.16,0.97,2.16,2.16C2967.46,3110.36,2966.49,3111.32,2965.3,3111.32z
				 M2922.14,3111.32h-12.95c-1.19,0-2.16-0.96-2.16-2.16c0-1.19,0.97-2.16,2.16-2.16h12.95c1.19,0,2.16,0.97,2.16,2.16
				C2924.3,3110.36,2923.34,3111.32,2922.14,3111.32z M2878.99,3111.32h-12.95c-1.19,0-2.16-0.96-2.16-2.16
				c0-1.19,0.97-2.16,2.16-2.16h12.95c1.19,0,2.16,0.97,2.16,2.16C2881.15,3110.36,2880.18,3111.32,2878.99,3111.32z
				 M2835.83,3111.32h-12.95c-1.19,0-2.16-0.96-2.16-2.16c0-1.19,0.97-2.16,2.16-2.16h12.95c1.19,0,2.16,0.97,2.16,2.16
				C2837.99,3110.36,2837.02,3111.32,2835.83,3111.32z M2792.68,3111.32h-12.95c-1.19,0-2.16-0.96-2.16-2.16
				c0-1.19,0.97-2.16,2.16-2.16h12.95c1.19,0,2.16,0.97,2.16,2.16C2794.83,3110.36,2793.87,3111.32,2792.68,3111.32z
				 M2749.52,3111.32h-12.95c-1.19,0-2.16-0.96-2.16-2.16c0-1.19,0.97-2.16,2.16-2.16h12.95c1.19,0,2.16,0.97,2.16,2.16
				C2751.68,3110.36,2750.71,3111.32,2749.52,3111.32z M2706.36,3111.32h-12.95c-1.19,0-2.16-0.96-2.16-2.16
				c0-1.19,0.97-2.16,2.16-2.16h12.95c1.19,0,2.16,0.97,2.16,2.16C2708.52,3110.36,2707.56,3111.32,2706.36,3111.32z
				 M2663.21,3111.32h-12.95c-1.19,0-2.16-0.96-2.16-2.16c0-1.19,0.97-2.16,2.16-2.16h12.95c1.19,0,2.16,0.97,2.16,2.16
				C2665.36,3110.36,2664.4,3111.32,2663.21,3111.32z M2620.05,3111.32h-12.95c-1.19,0-2.16-0.96-2.16-2.16
				c0-1.19,0.97-2.16,2.16-2.16h12.95c1.19,0,2.16,0.97,2.16,2.16C2622.21,3110.36,2621.24,3111.32,2620.05,3111.32z
				 M2576.89,3111.32h-12.95c-1.19,0-2.16-0.96-2.16-2.16c0-1.19,0.97-2.16,2.16-2.16h12.95c1.19,0,2.16,0.97,2.16,2.16
				C2579.05,3110.36,2578.09,3111.32,2576.89,3111.32z M2533.74,3111.32h-12.95c-1.19,0-2.16-0.96-2.16-2.16
				c0-1.19,0.97-2.16,2.16-2.16h12.95c1.19,0,2.16,0.97,2.16,2.16C2535.9,3110.36,2534.93,3111.32,2533.74,3111.32z"/>
			<linearGradient id="SVGID_34_" gradientUnits="userSpaceOnUse" x1="2605.6414" y1="2128.2847" x2="2691.9539" y2="2407.3618">
				<stop  offset="0" style="stop-color:#09005D"/>
				<stop  offset="1" style="stop-color:#1A0F91"/>
			</linearGradient>
			<path class="st39" d="M2744.36,2835.67l2.71-29.06c3.06-6.94,9.42-11.85,16.94-13.04c28.11-4.47,97.81-12.34,131.38,12.74
				l5.01,33.76L2744.36,2835.67z"/>
			<linearGradient id="SVGID_35_" gradientUnits="userSpaceOnUse" x1="2629.0266" y1="2121.0518" x2="2715.3389" y2="2400.1284">
				<stop  offset="0" style="stop-color:#09005D"/>
				<stop  offset="1" style="stop-color:#1A0F91"/>
			</linearGradient>
			<path class="st40" d="M2832.16,2807.71c-6.47,1.58-12.95,1.57-19.45-0.02c-7.86-1.93-13.4-8.96-13.4-17.02l0-90.98h46.3l0,90.91
				C2845.61,2798.69,2840.06,2805.78,2832.16,2807.71z"/>
			<linearGradient id="SVGID_36_" gradientUnits="userSpaceOnUse" x1="3014.9436" y1="2001.696" x2="3101.2561" y2="2280.7729">
				<stop  offset="0" style="stop-color:#09005D"/>
				<stop  offset="1" style="stop-color:#1A0F91"/>
			</linearGradient>
			<path class="st41" d="M3192.82,2835.67l2.71-29.06c3.06-6.94,9.42-11.85,16.94-13.04c28.11-4.47,97.81-12.34,131.38,12.74
				l5.01,33.76L3192.82,2835.67z"/>
			<linearGradient id="SVGID_37_" gradientUnits="userSpaceOnUse" x1="3039.6821" y1="1994.0452" x2="3125.9946" y2="2273.1223">
				<stop  offset="0" style="stop-color:#09005D"/>
				<stop  offset="1" style="stop-color:#1A0F91"/>
			</linearGradient>
			<path class="st42" d="M3280.62,2807.71c-6.47,1.58-12.95,1.57-19.45-0.02c-7.86-1.93-13.4-8.96-13.4-17.02l0-100.57h46.3l0,100.5
				C3294.07,2798.69,3288.51,2805.78,3280.62,2807.71z"/>
			<linearGradient id="SVGID_38_" gradientUnits="userSpaceOnUse" x1="2797.7434" y1="2746.3728" x2="3306.9871" y2="2579.5022">
				<stop  offset="0" style="stop-color:#4F52FF"/>
				<stop  offset="1" style="stop-color:#4042E2"/>
			</linearGradient>
			<path class="st43" d="M2794.61,2721.99l497.93-16.48c11.35-0.38,20.98-8.57,22.93-19.7c2.73-15.59,5.13-38.92,1.55-63.12
				c-4.08-27.51-27.74-47.94-55.67-48.61c-92.89-2.21-329.36-2.14-459.69,49.41c-13.78,5.45-24.01,17.23-27.5,31.58
				c-3.33,13.69-5.54,31.96-1.19,50.56C2775.28,2715.52,2784.42,2722.33,2794.61,2721.99z"/>
			<path class="st3" d="M2785.99,2698.24c-2.19,0-4.07-1.66-4.29-3.88c-0.08-0.8-1.93-19.9,3.05-38.29
				c3.89-14.4,15.28-25.98,29.72-30.22c27.85-8.17,81.07-22.05,124.59-23.27c2.48,0.03,4.37,1.81,4.44,4.19
				c0.06,2.39-1.81,4.37-4.19,4.44c-42.55,1.19-94.96,14.87-122.41,22.93c-11.58,3.4-20.71,12.66-23.82,24.19
				c-4.55,16.82-2.81,35-2.79,35.18c0.24,2.37-1.49,4.48-3.86,4.72C2786.28,2698.23,2786.13,2698.24,2785.99,2698.24z"/>
			<linearGradient id="SVGID_39_" gradientUnits="userSpaceOnUse" x1="3124.0642" y1="2839.022" x2="3693.7834" y2="1324.0874">
				<stop  offset="0" style="stop-color:#4F52FF"/>
				<stop  offset="1" style="stop-color:#4042E2"/>
			</linearGradient>
			<path class="st44" d="M2513.34,2824.35c160.87-2.06,856.76-9.37,1058.9,15.02c17.4,2.1,31.61,14.83,35.38,31.87
				c11.94,54,35.97,179.44,33.13,303.79c-0.39,16.92-12.8,31.2-29.5,34.36l-461.42,87.29h-163.91l-491.65-97.73
				c-17.33-3.44-30.1-18.12-31-35.69c-3.2-62.56-8.19-209.34,8.73-303.82C2475.58,2839.37,2492.85,2824.61,2513.34,2824.35z"/>
			<path class="st5" d="M3120.15,3259.08h-12.95c-1.19,0-2.16-0.97-2.16-2.16s0.97-2.16,2.16-2.16h12.95c1.19,0,2.16,0.97,2.16,2.16
				S3121.35,3259.08,3120.15,3259.08z M3077,3259.08h-12.95c-1.19,0-2.16-0.97-2.16-2.16s0.97-2.16,2.16-2.16H3077
				c1.19,0,2.16,0.97,2.16,2.16S3078.19,3259.08,3077,3259.08z M3033.84,3259.08h-12.95c-1.19,0-2.16-0.97-2.16-2.16
				s0.97-2.16,2.16-2.16h12.95c1.19,0,2.16,0.97,2.16,2.16S3035.03,3259.08,3033.84,3259.08z M2990.68,3259.08h-0.86l-13.12-2.57
				c-1.17-0.23-1.93-1.37-1.69-2.54c0.23-1.17,1.38-1.92,2.54-1.69l12.7,2.52l0.43-0.04c1.19,0,2.16,0.97,2.16,2.16
				S2991.88,3259.08,2990.68,3259.08z M3150.28,3258.29c-1.02,0-1.92-0.72-2.12-1.76c-0.22-1.17,0.55-2.3,1.72-2.52l12.72-2.41
				c1.13-0.23,2.3,0.55,2.52,1.72c0.22,1.17-0.55,2.3-1.72,2.52l-12.72,2.41C3150.55,3258.27,3150.42,3258.29,3150.28,3258.29z
				 M2947.5,3250.67c-0.14,0-0.28-0.01-0.43-0.04l-12.7-2.52c-1.17-0.23-1.93-1.37-1.69-2.54c0.23-1.17,1.37-1.93,2.54-1.69
				l12.7,2.52c1.17,0.23,1.93,1.37,1.69,2.54C2949.41,3249.96,2948.51,3250.67,2947.5,3250.67z M3192.69,3250.26
				c-1.02,0-1.92-0.72-2.12-1.76c-0.22-1.17,0.55-2.3,1.72-2.52l12.72-2.41c1.16-0.22,2.3,0.54,2.52,1.72
				c0.22,1.17-0.55,2.3-1.72,2.52l-12.72,2.41C3192.96,3250.25,3192.82,3250.26,3192.69,3250.26z M2905.18,3242.25
				c-0.14,0-0.28-0.01-0.43-0.04l-12.7-2.52c-1.17-0.23-1.93-1.37-1.69-2.54c0.23-1.17,1.4-1.94,2.54-1.69l12.7,2.52
				c1.17,0.23,1.93,1.37,1.69,2.54C2907.09,3241.54,2906.18,3242.25,2905.18,3242.25z M3235.09,3242.24c-1.02,0-1.92-0.72-2.12-1.76
				c-0.22-1.17,0.55-2.3,1.72-2.52l12.72-2.41c1.14-0.22,2.3,0.54,2.52,1.72c0.22,1.17-0.55,2.3-1.72,2.52l-12.72,2.41
				C3235.36,3242.23,3235.23,3242.24,3235.09,3242.24z M3277.5,3234.22c-1.02,0-1.92-0.72-2.12-1.76c-0.22-1.17,0.55-2.3,1.72-2.52
				l12.72-2.41c1.13-0.21,2.3,0.54,2.52,1.72c0.22,1.17-0.55,2.3-1.72,2.52l-12.72,2.41
				C3277.77,3234.21,3277.63,3234.22,3277.5,3234.22z M2862.85,3233.84c-0.14,0-0.28-0.01-0.43-0.04l-12.7-2.52
				c-1.17-0.23-1.93-1.37-1.69-2.54c0.23-1.17,1.4-1.92,2.54-1.69l12.7,2.52c1.17,0.23,1.93,1.37,1.69,2.54
				C2864.76,3233.13,2863.85,3233.84,2862.85,3233.84z M3319.9,3226.2c-1.02,0-1.92-0.72-2.12-1.76c-0.22-1.17,0.55-2.3,1.72-2.52
				l12.72-2.41c1.15-0.21,2.3,0.54,2.52,1.72c0.22,1.17-0.55,2.3-1.72,2.52l-12.72,2.41
				C3320.17,3226.19,3320.03,3226.2,3319.9,3226.2z M2820.52,3225.43c-0.14,0-0.28-0.01-0.43-0.04l-12.7-2.52
				c-1.17-0.23-1.93-1.37-1.69-2.54c0.23-1.17,1.39-1.93,2.54-1.69l12.7,2.52c1.17,0.23,1.93,1.37,1.69,2.54
				C2822.43,3224.71,2821.53,3225.43,2820.52,3225.43z M3362.3,3218.18c-1.02,0-1.92-0.72-2.12-1.76c-0.22-1.17,0.55-2.3,1.72-2.52
				l12.72-2.41c1.14-0.21,2.3,0.54,2.52,1.72c0.22,1.17-0.55,2.3-1.72,2.52l-12.72,2.41
				C3362.57,3218.17,3362.44,3218.18,3362.3,3218.18z M2778.19,3217.01c-0.14,0-0.28-0.01-0.43-0.04l-12.7-2.52
				c-1.17-0.23-1.93-1.37-1.69-2.54c0.23-1.17,1.39-1.95,2.54-1.69l12.7,2.52c1.17,0.23,1.93,1.37,1.69,2.54
				C2780.1,3216.3,2779.2,3217.01,2778.19,3217.01z M3404.71,3210.15c-1.02,0-1.92-0.72-2.12-1.76c-0.22-1.17,0.55-2.3,1.72-2.52
				l12.72-2.41c1.16-0.2,2.3,0.55,2.52,1.72c0.22,1.17-0.55,2.3-1.72,2.52l-12.72,2.41
				C3404.98,3210.14,3404.84,3210.15,3404.71,3210.15z M2735.86,3208.6c-0.14,0-0.28-0.01-0.43-0.04l-12.7-2.52
				c-1.17-0.23-1.93-1.37-1.69-2.54c0.23-1.17,1.38-1.93,2.54-1.69l12.7,2.52c1.17,0.23,1.93,1.37,1.69,2.54
				C2737.77,3207.89,2736.87,3208.6,2735.86,3208.6z M3447.11,3202.13c-1.02,0-1.92-0.72-2.12-1.76c-0.22-1.17,0.55-2.3,1.72-2.52
				l12.72-2.41c1.15-0.2,2.3,0.55,2.52,1.72c0.22,1.17-0.55,2.3-1.72,2.52l-12.72,2.41
				C3447.38,3202.12,3447.25,3202.13,3447.11,3202.13z M2693.53,3200.18c-0.14,0-0.28-0.01-0.43-0.04l-12.7-2.52
				c-1.17-0.23-1.93-1.37-1.69-2.54c0.23-1.17,1.38-1.93,2.54-1.69l12.7,2.52c1.17,0.23,1.93,1.37,1.69,2.54
				C2695.44,3199.47,2694.54,3200.18,2693.53,3200.18z M3489.51,3194.11c-1.02,0-1.92-0.72-2.12-1.76c-0.22-1.17,0.55-2.3,1.72-2.52
				l12.72-2.41c1.13-0.23,2.3,0.55,2.52,1.72c0.22,1.17-0.55,2.3-1.72,2.52l-12.72,2.41
				C3489.78,3194.1,3489.65,3194.11,3489.51,3194.11z M2651.21,3191.77c-0.14,0-0.28-0.01-0.43-0.04l-12.7-2.52
				c-1.17-0.23-1.93-1.37-1.69-2.54c0.23-1.17,1.4-1.91,2.54-1.69l12.7,2.52c1.17,0.23,1.93,1.37,1.69,2.54
				C2653.12,3191.06,2652.22,3191.77,2651.21,3191.77z M3531.92,3186.09c-1.02,0-1.92-0.72-2.12-1.76c-0.22-1.17,0.55-2.3,1.72-2.52
				l12.72-2.41c1.16-0.23,2.3,0.54,2.52,1.72c0.22,1.17-0.55,2.3-1.72,2.52l-12.72,2.41
				C3532.19,3186.08,3532.05,3186.09,3531.92,3186.09z M2608.88,3183.36c-0.14,0-0.28-0.01-0.43-0.04l-12.7-2.52
				c-1.17-0.23-1.93-1.37-1.69-2.54c0.23-1.17,1.4-1.93,2.54-1.69l12.7,2.52c1.17,0.23,1.93,1.37,1.69,2.54
				C2610.79,3182.65,2609.89,3183.36,2608.88,3183.36z M3574.32,3178.06c-1.02,0-1.92-0.72-2.12-1.76c-0.22-1.17,0.55-2.3,1.72-2.52
				l12.72-2.41c1.14-0.22,2.3,0.54,2.52,1.72c0.22,1.17-0.55,2.3-1.72,2.52l-12.72,2.41
				C3574.59,3178.05,3574.46,3178.06,3574.32,3178.06z M2566.55,3174.94c-0.14,0-0.28-0.01-0.43-0.04l-12.7-2.52
				c-1.17-0.23-1.93-1.37-1.69-2.54c0.23-1.17,1.39-1.94,2.54-1.69l12.7,2.52c1.17,0.23,1.93,1.37,1.69,2.54
				C2568.46,3174.23,2567.56,3174.94,2566.55,3174.94z M2524.22,3166.53c-0.14,0-0.28-0.01-0.43-0.04l-12.7-2.52
				c-1.17-0.23-1.93-1.37-1.69-2.54s1.39-1.92,2.54-1.69l12.7,2.52c1.17,0.23,1.93,1.37,1.69,2.54
				C2526.13,3165.82,2525.23,3166.53,2524.22,3166.53z M3601.22,3156.93c-1.19,0-2.16-0.83-2.16-2.03c0-4.48-0.03-8.7-0.09-12.92
				c-0.02-1.19,0.94-2.17,2.13-2.19c0.01,0,0.02,0,0.03,0c1.18,0,2.14,0.95,2.16,2.13c0.06,4.23,0.09,8.48,0.09,12.72
				C3603.38,3155.84,3602.41,3156.93,3601.22,3156.93z M2501.93,3140.88c-1.15,0-2.11-0.91-2.16-2.07
				c-0.17-4.11-0.34-8.44-0.51-12.95c-0.04-1.19,0.89-2.19,2.08-2.24c1.28,0.02,2.19,0.89,2.24,2.08c0.16,4.51,0.33,8.82,0.51,12.93
				c0.05,1.19-0.88,2.2-2.07,2.25C2501.99,3140.88,2501.96,3140.88,2501.93,3140.88z M3600.25,3113.92c-1.15,0-2.1-0.9-2.15-2.06
				c-0.19-4.32-0.41-8.62-0.65-12.91c-0.07-1.19,0.84-2.21,2.03-2.28c1.35-0.12,2.21,0.85,2.28,2.03c0.24,4.3,0.46,8.62,0.65,12.96
				c0.05,1.19-0.87,2.2-2.06,2.25C3600.31,3113.92,3600.27,3113.92,3600.25,3113.92z M2500.49,3097.74c-1.17,0-2.13-0.93-2.16-2.1
				c-0.11-4.23-0.2-8.56-0.29-12.96c-0.02-1.19,0.92-2.17,2.12-2.2c0.02,0,0.03,0,0.04,0c1.17,0,2.14,0.94,2.16,2.12
				c0.08,4.39,0.18,8.71,0.29,12.93c0.03,1.19-0.91,2.18-2.1,2.21C2500.52,3097.74,2500.51,3097.74,2500.49,3097.74z
				 M3597.5,3070.84c-1.11,0-2.05-0.85-2.15-1.98c-0.36-4.32-0.74-8.62-1.13-12.88c-0.11-1.18,0.76-2.24,1.95-2.35
				c1.17-0.06,2.24,0.76,2.35,1.95c0.4,4.27,0.78,8.58,1.13,12.93c0.1,1.19-0.78,2.23-1.97,2.33
				C3597.62,3070.84,3597.56,3070.84,3597.5,3070.84z M2499.82,3054.58c-1.18,0-2.15-0.96-2.16-2.15
				c-0.03-4.27-0.04-8.57-0.04-12.91l4.32-0.05c0,4.38,0.02,8.68,0.04,12.93c0.01,1.19-0.95,2.16-2.15,2.17
				C2499.82,3054.58,2499.82,3054.58,2499.82,3054.58z M3593.22,3027.88c-1.08,0-2.01-0.81-2.14-1.91
				c-0.5-4.34-1.02-8.61-1.55-12.84c-0.15-1.18,0.69-2.26,1.87-2.41c1.15-0.16,2.26,0.69,2.41,1.87c0.53,4.24,1.05,8.54,1.56,12.88
				c0.13,1.18-0.71,2.25-1.9,2.39C3593.39,3027.87,3593.31,3027.88,3593.22,3027.88z M2500.01,3011.42c-0.01,0-0.02,0-0.03,0
				c-1.19-0.02-2.14-1-2.12-2.19c0.07-4.31,0.15-8.64,0.26-12.96c0.03-1.19,1.02-1.95,2.21-2.11c1.19,0.03,2.14,1.02,2.11,2.21
				c-0.11,4.32-0.19,8.64-0.26,12.93C2502.15,3010.48,2501.19,3011.42,2500.01,3011.42z M3587.6,2985.07
				c-1.05,0-1.97-0.77-2.13-1.85c-0.63-4.34-1.28-8.61-1.93-12.79c-0.18-1.18,0.62-2.28,1.8-2.46c1.16-0.15,2.28,0.63,2.46,1.8
				c0.65,4.19,1.29,8.47,1.93,12.82c0.17,1.18-0.64,2.28-1.82,2.45C3587.81,2985.06,3587.7,2985.07,3587.6,2985.07z
				 M2501.29,2968.27c-0.03,0-0.06,0-0.1,0c-1.19-0.05-2.11-1.06-2.06-2.25c0.19-4.34,0.41-8.66,0.64-12.96
				c0.06-1.19,1.1-2.18,2.27-2.04c1.19,0.06,2.1,1.08,2.04,2.27c-0.24,4.29-0.45,8.6-0.64,12.92
				C2503.39,2967.37,2502.44,2968.27,2501.29,2968.27z M3580.73,2942.44c-1.03,0-1.94-0.74-2.12-1.78
				c-0.77-4.39-1.54-8.63-2.29-12.73c-0.22-1.17,0.56-2.3,1.73-2.51c1.13-0.24,2.3,0.55,2.51,1.73c0.76,4.11,1.53,8.37,2.3,12.77
				c0.21,1.18-0.58,2.29-1.75,2.5C3580.98,2942.43,3580.85,2942.44,3580.73,2942.44z M2504.02,2925.19c-0.06,0-0.12,0-0.19-0.01
				c-1.19-0.1-2.07-1.14-1.97-2.33c0.37-4.36,0.76-8.67,1.19-12.93c0.12-1.19,1.27-2.04,2.36-1.93c1.18,0.12,2.05,1.18,1.93,2.36
				c-0.42,4.23-0.82,8.53-1.18,12.86C2506.07,2924.34,2505.13,2925.19,2504.02,2925.19z M3572.64,2900.03c-1,0-1.9-0.7-2.11-1.72
				c-0.94-4.59-1.84-8.81-2.67-12.66c-0.25-1.16,0.48-2.31,1.65-2.56c1.16-0.28,2.31,0.49,2.56,1.65c0.84,3.86,1.74,8.1,2.68,12.7
				c0.24,1.17-0.51,2.31-1.68,2.55C3572.94,2900.01,3572.79,2900.03,3572.64,2900.03z M2508.9,2882.31c-0.11,0-0.21-0.01-0.32-0.03
				c-1.18-0.17-1.99-1.27-1.82-2.45c0.65-4.38,1.34-8.67,2.08-12.84c0.21-1.18,1.37-1.98,2.5-1.75c1.17,0.21,1.96,1.32,1.75,2.5
				c-0.73,4.14-1.42,8.38-2.07,12.72C2510.87,2881.54,2509.95,2882.31,2508.9,2882.31z M3544.63,2878.58c-0.07,0-0.13,0-0.2-0.01
				c-4.13-0.38-8.42-0.76-12.88-1.13c-1.19-0.1-2.07-1.14-1.97-2.33c0.1-1.19,1.28-2.06,2.33-1.97c4.48,0.37,8.78,0.75,12.92,1.13
				c1.19,0.11,2.06,1.16,1.95,2.35C3546.67,2877.74,3545.73,2878.58,3544.63,2878.58z M3501.6,2875.21c-0.05,0-0.09,0-0.14,0
				c-4.19-0.27-8.5-0.55-12.91-0.81c-1.19-0.07-2.09-1.09-2.02-2.28c0.07-1.19,1.02-2.17,2.28-2.02c4.42,0.27,8.73,0.54,12.93,0.81
				c1.19,0.08,2.09,1.1,2.01,2.29C3503.68,2874.34,3502.73,2875.21,3501.6,2875.21z M3458.51,2872.73c-0.03,0-0.07,0-0.11,0
				c-4.23-0.21-8.54-0.43-12.93-0.63c-1.19-0.05-2.11-1.07-2.05-2.25c0.05-1.19,1.15-2.22,2.25-2.05c4.4,0.21,8.71,0.42,12.94,0.63
				c1.19,0.06,2.11,1.07,2.04,2.26C3460.61,2871.84,3459.65,2872.73,3458.51,2872.73z M3415.39,2870.8c-0.03,0-0.05,0-0.08,0
				l-12.93-0.5c-1.19-0.05-2.12-1.05-2.08-2.24c0.05-1.19,1.01-2.13,2.24-2.08l12.94,0.5c1.19,0.05,2.12,1.05,2.07,2.24
				C3417.51,2869.89,3416.55,2870.8,3415.39,2870.8z M3372.26,2869.25c-0.02,0-0.05,0-0.07,0l-12.94-0.41
				c-1.19-0.04-2.13-1.03-2.09-2.23c0.04-1.19,0.91-2.04,2.23-2.09l12.95,0.41c1.19,0.04,2.12,1.04,2.09,2.23
				C3374.38,2868.33,3373.42,2869.25,3372.26,2869.25z M3329.12,2867.98c-0.02,0-0.04,0-0.06,0l-12.94-0.33
				c-1.19-0.03-2.13-1.02-2.1-2.21c0.03-1.17,0.99-2.1,2.16-2.1c0.02,0,0.03,0,0.05,0l12.95,0.33c1.19,0.03,2.13,1.02,2.1,2.22
				C3331.24,2867.05,3330.29,2867.98,3329.12,2867.98z M3285.98,2866.94c-0.01,0-0.03,0-0.05,0l-12.94-0.27
				c-1.19-0.03-2.14-1.01-2.12-2.2c0.03-1.18,0.99-2.12,2.16-2.12c0.01,0,0.03,0,0.04,0l12.95,0.27c1.19,0.03,2.14,1.01,2.11,2.2
				C3288.11,2866,3287.15,2866.94,3285.98,2866.94z M3242.83,2866.09c-0.01,0-0.03,0-0.04,0l-12.94-0.22
				c-1.19-0.02-2.15-1-2.12-2.19c0.02-1.18,0.98-2.12,2.16-2.12c0.01,0,0.03,0,0.03,0l12.95,0.22c1.19,0.02,2.14,1,2.12,2.2
				C3244.96,2865.14,3244,2866.09,3242.83,2866.09z M2539.25,2865.95c-1.18,0-2.14-0.95-2.16-2.13c-0.01-1.19,0.94-2.17,2.13-2.18
				l12.96-0.15c0.01,0,0.02,0,0.03,0c1.18,0,2.15,0.95,2.16,2.13c0.01,1.19-0.94,2.17-2.13,2.18l-12.96,0.15
				C2539.26,2865.95,2539.26,2865.95,2539.25,2865.95z M2582.42,2865.47c-1.18,0-2.15-0.95-2.16-2.14
				c-0.01-1.19,0.94-2.17,2.14-2.18l12.96-0.13c1.06-0.01,2.17,0.94,2.18,2.14s-0.94,2.17-2.14,2.18l-12.96,0.13
				C2582.44,2865.47,2582.43,2865.47,2582.42,2865.47z M3199.67,2865.4c-0.01,0-0.02,0-0.03,0l-12.95-0.18
				c-1.19-0.02-2.15-0.99-2.13-2.19c0.01-1.19,0.82-2.08,2.19-2.13l12.95,0.18c1.19,0.02,2.15,0.99,2.13,2.19
				C3201.81,2864.45,3200.85,2865.4,3199.67,2865.4z M2625.6,2865.05c-1.18,0-2.15-0.95-2.16-2.14c-0.01-1.19,0.95-2.17,2.14-2.18
				l12.95-0.12c0.01,0,0.01,0,0.02,0c1.18,0,2.15,0.95,2.16,2.14c0.01,1.19-0.94,2.17-2.14,2.18l-12.95,0.12
				C2625.61,2865.05,2625.61,2865.05,2625.6,2865.05z M3156.52,2864.85c-0.01,0-0.02,0-0.03,0l-12.94-0.14
				c-1.19-0.01-2.15-0.99-2.14-2.18c0.01-1.2,1.18-2.17,2.18-2.14l12.95,0.14c1.19,0.01,2.15,0.99,2.13,2.18
				C3158.67,2863.91,3157.7,2864.85,3156.52,2864.85z M2668.77,2864.68c-1.18,0-2.15-0.96-2.16-2.14c-0.01-1.19,0.95-2.17,2.14-2.17
				l12.95-0.1c0,0,0.01,0,0.02,0c1.18,0,2.15,0.96,2.16,2.14c0.01,1.19-0.95,2.17-2.14,2.17l-12.95,0.1
				C2668.78,2864.68,2668.77,2864.68,2668.77,2864.68z M3113.36,2864.42c0,0-0.01,0-0.02,0l-12.94-0.11
				c-1.19-0.01-2.15-0.98-2.14-2.17c0.01-1.18,0.97-2.14,2.16-2.14c0,0,0.01,0,0.02,0l12.95,0.11c1.19,0.01,2.15,0.99,2.14,2.18
				C3115.5,2863.47,3114.54,2864.42,3113.36,2864.42z M2711.94,2864.36c-1.18,0-2.15-0.96-2.16-2.14c-0.01-1.19,0.95-2.17,2.14-2.17
				l12.96-0.08c0,0,0.01,0,0.01,0c1.18,0,2.15,0.96,2.16,2.15c0.01,1.19-0.95,2.16-2.15,2.17l-12.95,0.08
				C2711.95,2864.36,2711.95,2864.36,2711.94,2864.36z M2755.11,2864.1c-1.18,0-2.15-0.96-2.16-2.15c-0.01-1.19,0.95-2.16,2.15-2.17
				l12.95-0.07c0,0,0.01,0,0.01,0c1.18,0,2.15,0.96,2.16,2.15c0.01,1.19-0.95,2.16-2.15,2.17l-12.95,0.07
				C2755.12,2864.1,2755.12,2864.1,2755.11,2864.1z M3070.2,2864.09c0,0-0.01,0-0.02,0l-12.94-0.08c-1.19-0.01-2.15-0.98-2.15-2.17
				c0.01-1.19,0.97-2.15,2.16-2.15c0,0,0.01,0,0.01,0l12.95,0.08c1.19,0.01,2.15,0.98,2.14,2.17
				C3072.35,2863.14,3071.39,2864.09,3070.2,2864.09z M2798.28,2863.89c-1.19,0-2.15-0.96-2.16-2.15c0-1.19,0.96-2.16,2.15-2.17
				l12.95-0.05c0,0,0,0,0.01,0c1.19,0,2.15,0.96,2.16,2.15c0,1.19-0.96,2.16-2.15,2.17L2798.28,2863.89
				C2798.29,2863.89,2798.29,2863.89,2798.28,2863.89z M3027.05,2863.86C3027.04,2863.86,3027.04,2863.86,3027.05,2863.86
				l-12.96-0.05c-1.19,0-2.15-0.97-2.15-2.17c0-1.19,0.91-2.27,2.17-2.15l12.95,0.05c1.19,0,2.15,0.98,2.15,2.17
				S3028.24,2863.86,3027.05,2863.86z M2841.45,2863.74c-1.19,0-2.15-0.96-2.16-2.15c0-1.19,0.96-2.16,2.15-2.17l12.96-0.03
				c0,0,0,0,0,0c1.19,0,2.16,0.97,2.16,2.16c0,1.19-0.97,2.16-2.16,2.16L2841.45,2863.74
				C2841.45,2863.74,2841.45,2863.74,2841.45,2863.74z M2983.89,2863.71C2983.89,2863.71,2983.89,2863.71,2983.89,2863.71
				l-12.95-0.03c-1.19,0-2.16-0.97-2.15-2.16c0-1.19,0.97-2.15,2.16-2.15h0l12.95,0.03c1.19,0,2.16,0.97,2.15,2.17
				C2986.04,2862.75,2985.08,2863.71,2983.89,2863.71z M2884.62,2863.66c-1.19,0-2.16-0.97-2.16-2.16c0-1.19,0.97-2.16,2.16-2.16
				l12.95-0.01c0,0,0,0,0,0c1.19,0,2.16,0.97,2.16,2.15c0,1.19-0.97,2.16-2.16,2.16L2884.62,2863.66
				C2884.62,2863.66,2884.62,2863.66,2884.62,2863.66z M2940.73,2863.64C2940.73,2863.64,2940.73,2863.64,2940.73,2863.64
				l-12.95-0.01c-1.19,0-2.16-0.97-2.16-2.16c0-1.19,0.97-2.16,2.16-2.16l12.95,0.01c1.19,0,2.15,0.97,2.15,2.16
				C2942.89,2862.67,2941.92,2863.64,2940.73,2863.64z"/>
			<linearGradient id="SVGID_40_" gradientUnits="userSpaceOnUse" x1="3104.9912" y1="2857.7217" x2="3040.3823" y2="3369.6201">
				<stop  offset="0" style="stop-color:#09005D"/>
				<stop  offset="1" style="stop-color:#1A0F91"/>
			</linearGradient>
			<path class="st45" d="M3134.39,3365.5h-143.59c-18.82,0-34.66-14-36.9-32.6l-16.59-138.17c-2.64-22.01,14.63-41.37,36.9-41.37
				h172.5c21.82,0,38.94,18.62,37.01,40.26l-12.32,138.18C3169.7,3350.86,3153.64,3365.5,3134.39,3365.5z"/>
			<linearGradient id="SVGID_41_" gradientUnits="userSpaceOnUse" x1="3042.3472" y1="2998.9524" x2="3110.2236" y2="3777.7429">
				<stop  offset="0" style="stop-color:#4F52FF"/>
				<stop  offset="1" style="stop-color:#4042E2"/>
			</linearGradient>
			<path class="st46" d="M3116.73,3340.08h-109.29c-14.32,0-26.38-10.66-28.08-24.81l-12.63-105.17
				c-2.01-16.75,11.13-31.49,28.08-31.49h131.29c16.61,0,29.64,14.17,28.17,30.64l-9.38,105.17
				C3143.6,3328.95,3131.38,3340.08,3116.73,3340.08z"/>
		</g>
	</g>
</g>
</svg>
